<?xml version="1.0" encoding="UTF-8" standalone="no"?>
<svg
   xmlns:dc="http://purl.org/dc/elements/1.1/"
   xmlns:cc="http://creativecommons.org/ns#"
   xmlns:rdf="http://www.w3.org/1999/02/22-rdf-syntax-ns#"
   xmlns:svg="http://www.w3.org/2000/svg"
   xmlns="http://www.w3.org/2000/svg"
   xmlns:xlink="http://www.w3.org/1999/xlink"
   xmlns:sodipodi="http://sodipodi.sourceforge.net/DTD/sodipodi-0.dtd"
   xmlns:inkscape="http://www.inkscape.org/namespaces/inkscape"
   width="800"
   height="400"
   viewBox="0 0 211.66666 105.83334"
   version="1.1"
   id="svg8"
   inkscape:version="1.0.1 (3bc2e813f5, 2020-09-07)"
   sodipodi:docname="NameCardBG.svg"
   inkscape:export-filename="C:\Users\Matt\Documents\portfolio\img\NameCardBG.png"
   inkscape:export-xdpi="190.96201"
   inkscape:export-ydpi="190.96201">
  <defs
     id="defs2">
    <linearGradient
       inkscape:collect="always"
       id="linearGradient904">
      <stop
         style="stop-color:#000000;stop-opacity:0"
         offset="0"
         id="stop900" />
      <stop
         style="stop-color:#000000;stop-opacity:1"
         offset="1"
         id="stop902" />
    </linearGradient>
    <radialGradient
       inkscape:collect="always"
       xlink:href="#linearGradient904"
       id="radialGradient906"
       cx="31.183018"
       cy="37.797585"
       fx="31.183018"
       fy="37.797585"
       r="21.450165"
       gradientTransform="matrix(1,0,0,1.0000011,-27.970238,67.09073)"
       gradientUnits="userSpaceOnUse" />
    <radialGradient
       inkscape:collect="always"
       xlink:href="#linearGradient904"
       id="radialGradient910"
       gradientUnits="userSpaceOnUse"
       gradientTransform="matrix(0.73351421,0,0,0.73351502,-11.817401,56.469057)"
       cx="31.183018"
       cy="37.797585"
       fx="31.183018"
       fy="37.797585"
       r="21.450165" />
    <radialGradient
       inkscape:collect="always"
       xlink:href="#linearGradient904"
       id="radialGradient914"
       gradientUnits="userSpaceOnUse"
       gradientTransform="matrix(0.73351421,0,0,0.73351502,16.719801,85.006259)"
       cx="31.183018"
       cy="37.797585"
       fx="31.183018"
       fy="37.797585"
       r="21.450165" />
    <radialGradient
       inkscape:collect="always"
       xlink:href="#linearGradient904"
       id="radialGradient918"
       gradientUnits="userSpaceOnUse"
       gradientTransform="matrix(0.46702841,0,0,0.46702893,18.674926,66.317382)"
       cx="31.183018"
       cy="37.797585"
       fx="31.183018"
       fy="37.797585"
       r="21.450165" />
    <filter
       inkscape:collect="always"
       style="color-interpolation-filters:sRGB"
       id="filter1624"
       x="-0.01922035"
       width="1.0384407"
       y="-0.01922035"
       height="1.0384407">
      <feGaussianBlur
         inkscape:collect="always"
         stdDeviation="0.33297158"
         id="feGaussianBlur1626" />
    </filter>
    <filter
       inkscape:collect="always"
       style="color-interpolation-filters:sRGB"
       id="filter1628"
       x="-0.026203107"
       width="1.0524062"
       y="-0.026203107"
       height="1.0524062">
      <feGaussianBlur
         inkscape:collect="always"
         stdDeviation="0.33297158"
         id="feGaussianBlur1630" />
    </filter>
    <filter
       inkscape:collect="always"
       style="color-interpolation-filters:sRGB"
       id="filter1632"
       x="-0.041154567"
       width="1.0823091"
       y="-0.041154567"
       height="1.0823091">
      <feGaussianBlur
         inkscape:collect="always"
         stdDeviation="0.33297158"
         id="feGaussianBlur1634" />
    </filter>
    <filter
       inkscape:collect="always"
       style="color-interpolation-filters:sRGB"
       id="filter1636"
       x="-0.026203107"
       width="1.0524062"
       y="-0.026203107"
       height="1.0524062">
      <feGaussianBlur
         inkscape:collect="always"
         stdDeviation="0.33297158"
         id="feGaussianBlur1638" />
    </filter>
    <radialGradient
       inkscape:collect="always"
       xlink:href="#linearGradient904"
       id="radialGradient1657"
       gradientUnits="userSpaceOnUse"
       gradientTransform="matrix(1,0,0,1.0000011,27.214286,7.9374561)"
       cx="31.183018"
       cy="37.797585"
       fx="31.183018"
       fy="37.797585"
       r="21.450165" />
    <radialGradient
       inkscape:collect="always"
       xlink:href="#linearGradient904"
       id="radialGradient1661"
       gradientUnits="userSpaceOnUse"
       gradientTransform="matrix(1,0,0,1.0000011,27.214286,7.9374561)"
       cx="31.183018"
       cy="37.797585"
       fx="31.183018"
       fy="37.797585"
       r="21.450165" />
    <radialGradient
       inkscape:collect="always"
       xlink:href="#linearGradient904"
       id="radialGradient1665"
       gradientUnits="userSpaceOnUse"
       gradientTransform="matrix(1,0,0,1.0000011,27.214286,7.9374561)"
       cx="31.183018"
       cy="37.797585"
       fx="31.183018"
       fy="37.797585"
       r="21.450165" />
    <radialGradient
       inkscape:collect="always"
       xlink:href="#linearGradient904"
       id="radialGradient1669"
       gradientUnits="userSpaceOnUse"
       gradientTransform="matrix(1,0,0,1.0000011,27.214286,7.9374561)"
       cx="31.183018"
       cy="37.797585"
       fx="31.183018"
       fy="37.797585"
       r="21.450165" />
    <radialGradient
       inkscape:collect="always"
       xlink:href="#linearGradient904"
       id="radialGradient1673"
       gradientUnits="userSpaceOnUse"
       gradientTransform="matrix(1,0,0,1.0000011,27.214286,7.9374561)"
       cx="31.183018"
       cy="37.797585"
       fx="31.183018"
       fy="37.797585"
       r="21.450165" />
    <radialGradient
       inkscape:collect="always"
       xlink:href="#linearGradient904"
       id="radialGradient1677"
       gradientUnits="userSpaceOnUse"
       gradientTransform="matrix(1,0,0,1.0000011,27.214286,7.9374561)"
       cx="31.183018"
       cy="37.797585"
       fx="31.183018"
       fy="37.797585"
       r="21.450165" />
    <radialGradient
       inkscape:collect="always"
       xlink:href="#linearGradient904"
       id="radialGradient1681"
       gradientUnits="userSpaceOnUse"
       gradientTransform="matrix(1,0,0,1.0000011,27.214286,7.9374561)"
       cx="31.183018"
       cy="37.797585"
       fx="31.183018"
       fy="37.797585"
       r="21.450165" />
    <radialGradient
       inkscape:collect="always"
       xlink:href="#linearGradient904"
       id="radialGradient1685"
       gradientUnits="userSpaceOnUse"
       gradientTransform="matrix(1,0,0,1.0000011,27.214286,7.9374561)"
       cx="31.183018"
       cy="37.797585"
       fx="31.183018"
       fy="37.797585"
       r="21.450165" />
    <radialGradient
       inkscape:collect="always"
       xlink:href="#linearGradient904"
       id="radialGradient1689"
       gradientUnits="userSpaceOnUse"
       gradientTransform="matrix(1,0,0,1.0000011,27.214286,7.9374561)"
       cx="31.183018"
       cy="37.797585"
       fx="31.183018"
       fy="37.797585"
       r="21.450165" />
    <radialGradient
       inkscape:collect="always"
       xlink:href="#linearGradient904"
       id="radialGradient1693"
       gradientUnits="userSpaceOnUse"
       gradientTransform="matrix(1,0,0,1.0000011,27.214286,7.9374561)"
       cx="31.183018"
       cy="37.797585"
       fx="31.183018"
       fy="37.797585"
       r="21.450165" />
    <radialGradient
       inkscape:collect="always"
       xlink:href="#linearGradient904"
       id="radialGradient1697"
       gradientUnits="userSpaceOnUse"
       gradientTransform="matrix(1,0,0,1.0000011,27.214286,7.9374561)"
       cx="31.183018"
       cy="37.797585"
       fx="31.183018"
       fy="37.797585"
       r="21.450165" />
    <radialGradient
       inkscape:collect="always"
       xlink:href="#linearGradient904"
       id="radialGradient1701"
       gradientUnits="userSpaceOnUse"
       gradientTransform="matrix(1,0,0,1.0000011,27.214286,7.9374561)"
       cx="31.183018"
       cy="37.797585"
       fx="31.183018"
       fy="37.797585"
       r="21.450165" />
    <radialGradient
       inkscape:collect="always"
       xlink:href="#linearGradient904"
       id="radialGradient1705"
       gradientUnits="userSpaceOnUse"
       gradientTransform="matrix(1,0,0,1.0000011,27.214286,7.9374561)"
       cx="31.183018"
       cy="37.797585"
       fx="31.183018"
       fy="37.797585"
       r="21.450165" />
    <radialGradient
       inkscape:collect="always"
       xlink:href="#linearGradient904"
       id="radialGradient1709"
       gradientUnits="userSpaceOnUse"
       gradientTransform="matrix(1,0,0,1.0000011,27.214286,7.9374561)"
       cx="31.183018"
       cy="37.797585"
       fx="31.183018"
       fy="37.797585"
       r="21.450165" />
    <radialGradient
       inkscape:collect="always"
       xlink:href="#linearGradient904"
       id="radialGradient1713"
       gradientUnits="userSpaceOnUse"
       gradientTransform="matrix(1,0,0,1.0000011,27.214286,7.9374561)"
       cx="31.183018"
       cy="37.797585"
       fx="31.183018"
       fy="37.797585"
       r="21.450165" />
    <radialGradient
       inkscape:collect="always"
       xlink:href="#linearGradient904"
       id="radialGradient1717"
       gradientUnits="userSpaceOnUse"
       gradientTransform="matrix(1,0,0,1.0000011,27.214286,7.9374561)"
       cx="31.183018"
       cy="37.797585"
       fx="31.183018"
       fy="37.797585"
       r="21.450165" />
    <radialGradient
       inkscape:collect="always"
       xlink:href="#linearGradient904"
       id="radialGradient1721"
       gradientUnits="userSpaceOnUse"
       gradientTransform="matrix(0.73351421,0,0,0.73351502,-21.455794,21.317271)"
       cx="31.183018"
       cy="37.797585"
       fx="31.183018"
       fy="37.797585"
       r="21.450165" />
  </defs>
  <sodipodi:namedview
     id="base"
     pagecolor="#ffffff"
     bordercolor="#666666"
     borderopacity="1.0"
     inkscape:pageopacity="0.0"
     inkscape:pageshadow="2"
     inkscape:zoom="1.4"
     inkscape:cx="387.65275"
     inkscape:cy="205.91385"
     inkscape:document-units="mm"
     inkscape:current-layer="layer1"
     inkscape:document-rotation="0"
     showgrid="false"
     units="px"
     inkscape:window-width="1920"
     inkscape:window-height="1027"
     inkscape:window-x="3278"
     inkscape:window-y="-8"
     inkscape:window-maximized="1" />
  <metadata
     id="metadata5">
    <rdf:RDF>
      <cc:Work
         rdf:about="">
        <dc:format>image/svg+xml</dc:format>
        <dc:type
           rdf:resource="http://purl.org/dc/dcmitype/StillImage" />
        <dc:title></dc:title>
      </cc:Work>
    </rdf:RDF>
  </metadata>
  <g
     inkscape:label="Layer 1"
     inkscape:groupmode="layer"
     id="layer1">
    <path
       style="opacity:1;fill:url(#radialGradient906);fill-opacity:1;fill-rule:nonzero;stroke:none;stroke-width:0.264583;stroke-miterlimit:4;stroke-dasharray:none;stroke-opacity:1;paint-order:stroke fill markers;filter:url(#filter1624)"
       id="path890"
       sodipodi:type="arc"
       sodipodi:cx="3.2127967"
       sodipodi:cy="104.88839"
       sodipodi:rx="20.788689"
       sodipodi:ry="20.788689"
       sodipodi:start="0"
       sodipodi:end="6.2569705"
       sodipodi:open="true"
       sodipodi:arc-type="arc"
       d="M 24.001485,104.88839 A 20.788689,20.788689 0 0 1 3.3490388,125.67663 20.788689,20.788689 0 0 1 -17.574106,105.16087 20.788689,20.788689 0 0 1 2.8040938,84.103719 20.788689,20.788689 0 0 1 23.994343,104.34348" />
    <path
       style="opacity:1;fill:url(#radialGradient910);fill-opacity:1;fill-rule:nonzero;stroke:none;stroke-width:0.194075;stroke-miterlimit:4;stroke-dasharray:none;stroke-opacity:1;paint-order:stroke fill markers;filter:url(#filter1636)"
       id="path908"
       sodipodi:type="arc"
       sodipodi:cx="11.055798"
       sodipodi:cy="84.194176"
       sodipodi:rx="15.248798"
       sodipodi:ry="15.248798"
       sodipodi:start="0"
       sodipodi:end="6.2569705"
       sodipodi:open="true"
       sodipodi:arc-type="arc"
       d="M 26.304596,84.194176 A 15.248798,15.248798 0 0 1 11.155733,99.442647 15.248798,15.248798 0 0 1 -4.1916909,84.394042 15.248798,15.248798 0 0 1 10.756009,68.948325 15.248798,15.248798 0 0 1 26.299357,83.794477" />
    <path
       style="opacity:1;fill:url(#radialGradient914);fill-opacity:1;fill-rule:nonzero;stroke:none;stroke-width:0.194075;stroke-miterlimit:4;stroke-dasharray:none;stroke-opacity:1;paint-order:stroke fill markers;filter:url(#filter1628)"
       id="path912"
       sodipodi:type="arc"
       sodipodi:cx="39.592999"
       sodipodi:cy="112.73138"
       sodipodi:rx="15.248798"
       sodipodi:ry="15.248798"
       sodipodi:start="0"
       sodipodi:end="6.2569705"
       sodipodi:open="true"
       sodipodi:arc-type="arc"
       d="M 54.841797,112.73138 A 15.248798,15.248798 0 0 1 39.692934,127.97985 15.248798,15.248798 0 0 1 24.34551,112.93124 15.248798,15.248798 0 0 1 39.29321,97.485525 15.248798,15.248798 0 0 1 54.836558,112.33168" />
    <path
       style="opacity:1;fill:url(#radialGradient918);fill-opacity:1;fill-rule:nonzero;stroke:none;stroke-width:0.123568;stroke-miterlimit:4;stroke-dasharray:none;stroke-opacity:1;paint-order:stroke fill markers;filter:url(#filter1632)"
       id="path916"
       sodipodi:type="arc"
       sodipodi:cx="33.238289"
       sodipodi:cy="83.969955"
       sodipodi:rx="9.7089081"
       sodipodi:ry="9.7089081"
       sodipodi:start="0"
       sodipodi:end="6.2569705"
       sodipodi:open="true"
       sodipodi:arc-type="arc"
       d="m 42.947197,83.969955 a 9.7089081,9.7089081 0 0 1 -9.645279,9.7087 9.7089081,9.7089081 0 0 1 -9.771703,-9.581445 9.7089081,9.7089081 0 0 1 9.517198,-9.834286 9.7089081,9.7089081 0 0 1 9.896448,9.452543" />
    <path
       style="opacity:1;fill:url(#radialGradient1657);fill-opacity:1;fill-rule:nonzero;stroke:none;stroke-width:0.264583;stroke-miterlimit:4;stroke-dasharray:none;stroke-opacity:1;paint-order:stroke fill markers;filter:url(#filter1624)"
       id="path1655"
       sodipodi:type="arc"
       sodipodi:cx="58.39732"
       sodipodi:cy="45.735115"
       sodipodi:rx="20.788689"
       sodipodi:ry="20.788689"
       sodipodi:start="0"
       sodipodi:end="6.2569705"
       sodipodi:open="true"
       sodipodi:arc-type="arc"
       d="M 79.186008,45.735115 A 20.788689,20.788689 0 0 1 58.533562,66.523357 20.788689,20.788689 0 0 1 37.610417,46.007593 20.788689,20.788689 0 0 1 57.988618,24.950444 20.788689,20.788689 0 0 1 79.178866,45.190206"
       transform="matrix(0.37843865,0,0,0.37843865,38.376386,54.318549)" />
    <path
       style="opacity:1;fill:url(#radialGradient1661);fill-opacity:1;fill-rule:nonzero;stroke:none;stroke-width:0.264583;stroke-miterlimit:4;stroke-dasharray:none;stroke-opacity:1;paint-order:stroke fill markers;filter:url(#filter1624)"
       id="path1659"
       sodipodi:type="arc"
       sodipodi:cx="58.39732"
       sodipodi:cy="45.735115"
       sodipodi:rx="20.788689"
       sodipodi:ry="20.788689"
       sodipodi:start="0"
       sodipodi:end="6.2569705"
       sodipodi:open="true"
       sodipodi:arc-type="arc"
       d="M 79.186008,45.735115 A 20.788689,20.788689 0 0 1 58.533562,66.523357 20.788689,20.788689 0 0 1 37.610417,46.007593 20.788689,20.788689 0 0 1 57.988618,24.950444 20.788689,20.788689 0 0 1 79.178866,45.190206"
       transform="matrix(0.23836849,0,0,0.23836849,9.7034298,45.983602)" />
    <path
       style="opacity:1;fill:url(#radialGradient1665);fill-opacity:1;fill-rule:nonzero;stroke:none;stroke-width:0.264583;stroke-miterlimit:4;stroke-dasharray:none;stroke-opacity:1;paint-order:stroke fill markers;filter:url(#filter1624)"
       id="path1663"
       sodipodi:type="arc"
       sodipodi:cx="58.39732"
       sodipodi:cy="45.735115"
       sodipodi:rx="20.788689"
       sodipodi:ry="20.788689"
       sodipodi:start="0"
       sodipodi:end="6.2569705"
       sodipodi:open="true"
       sodipodi:arc-type="arc"
       d="M 79.186008,45.735115 A 20.788689,20.788689 0 0 1 58.533562,66.523357 20.788689,20.788689 0 0 1 37.610417,46.007593 20.788689,20.788689 0 0 1 57.988618,24.950444 20.788689,20.788689 0 0 1 79.178866,45.190206"
       transform="matrix(0.5841667,0,0,0.5841667,17.952449,64.658808)" />
    <path
       style="opacity:1;fill:url(#radialGradient1669);fill-opacity:1;fill-rule:nonzero;stroke:none;stroke-width:0.264583;stroke-miterlimit:4;stroke-dasharray:none;stroke-opacity:1;paint-order:stroke fill markers;filter:url(#filter1624)"
       id="path1667"
       sodipodi:type="arc"
       sodipodi:cx="58.39732"
       sodipodi:cy="45.735115"
       sodipodi:rx="20.788689"
       sodipodi:ry="20.788689"
       sodipodi:start="0"
       sodipodi:end="6.2569705"
       sodipodi:open="true"
       sodipodi:arc-type="arc"
       d="M 79.186008,45.735115 A 20.788689,20.788689 0 0 1 58.533562,66.523357 20.788689,20.788689 0 0 1 37.610417,46.007593 20.788689,20.788689 0 0 1 57.988618,24.950444 20.788689,20.788689 0 0 1 79.178866,45.190206"
       transform="matrix(0.75050002,0,0,0.75050002,-16.896388,61.965225)" />
    <path
       style="opacity:1;fill:url(#radialGradient1673);fill-opacity:1;fill-rule:nonzero;stroke:none;stroke-width:0.264583;stroke-miterlimit:4;stroke-dasharray:none;stroke-opacity:1;paint-order:stroke fill markers;filter:url(#filter1624)"
       id="path1671"
       sodipodi:type="arc"
       sodipodi:cx="58.39732"
       sodipodi:cy="45.735115"
       sodipodi:rx="20.788689"
       sodipodi:ry="20.788689"
       sodipodi:start="0"
       sodipodi:end="6.2569705"
       sodipodi:open="true"
       sodipodi:arc-type="arc"
       d="M 79.186008,45.735115 A 20.788689,20.788689 0 0 1 58.533562,66.523357 20.788689,20.788689 0 0 1 37.610417,46.007593 20.788689,20.788689 0 0 1 57.988618,24.950444 20.788689,20.788689 0 0 1 79.178866,45.190206"
       transform="matrix(0.4659825,0,0,0.4659825,40.256618,83.765613)" />
    <path
       style="opacity:1;fill:url(#radialGradient1677);fill-opacity:1;fill-rule:nonzero;stroke:none;stroke-width:0.264583;stroke-miterlimit:4;stroke-dasharray:none;stroke-opacity:1;paint-order:stroke fill markers;filter:url(#filter1624)"
       id="path1675"
       sodipodi:type="arc"
       sodipodi:cx="58.39732"
       sodipodi:cy="45.735115"
       sodipodi:rx="20.788689"
       sodipodi:ry="20.788689"
       sodipodi:start="0"
       sodipodi:end="6.2569705"
       sodipodi:open="true"
       sodipodi:arc-type="arc"
       d="M 79.186008,45.735115 A 20.788689,20.788689 0 0 1 58.533562,66.523357 20.788689,20.788689 0 0 1 37.610417,46.007593 20.788689,20.788689 0 0 1 57.988618,24.950444 20.788689,20.788689 0 0 1 79.178866,45.190206"
       transform="matrix(0.78551756,0,0,0.78551756,34.353323,44.86667)" />
    <path
       style="opacity:1;fill:url(#radialGradient1681);fill-opacity:1;fill-rule:nonzero;stroke:none;stroke-width:0.264583;stroke-miterlimit:4;stroke-dasharray:none;stroke-opacity:1;paint-order:stroke fill markers;filter:url(#filter1624)"
       id="path1679"
       sodipodi:type="arc"
       sodipodi:cx="58.39732"
       sodipodi:cy="45.735115"
       sodipodi:rx="20.788689"
       sodipodi:ry="20.788689"
       sodipodi:start="0"
       sodipodi:end="6.2569705"
       sodipodi:open="true"
       sodipodi:arc-type="arc"
       d="M 79.186008,45.735115 A 20.788689,20.788689 0 0 1 58.533562,66.523357 20.788689,20.788689 0 0 1 37.610417,46.007593 20.788689,20.788689 0 0 1 57.988618,24.950444 20.788689,20.788689 0 0 1 79.178866,45.190206"
       transform="matrix(0.50975443,0,0,0.50975443,8.4072997,51.525604)" />
    <path
       style="opacity:1;fill:url(#radialGradient1685);fill-opacity:1;fill-rule:nonzero;stroke:none;stroke-width:0.264583;stroke-miterlimit:4;stroke-dasharray:none;stroke-opacity:1;paint-order:stroke fill markers;filter:url(#filter1624)"
       id="path1683"
       sodipodi:type="arc"
       sodipodi:cx="58.39732"
       sodipodi:cy="45.735115"
       sodipodi:rx="20.788689"
       sodipodi:ry="20.788689"
       sodipodi:start="0"
       sodipodi:end="6.2569705"
       sodipodi:open="true"
       sodipodi:arc-type="arc"
       d="M 79.186008,45.735115 A 20.788689,20.788689 0 0 1 58.533562,66.523357 20.788689,20.788689 0 0 1 37.610417,46.007593 20.788689,20.788689 0 0 1 57.988618,24.950444 20.788689,20.788689 0 0 1 79.178866,45.190206"
       transform="matrix(0.22523691,0,0,0.22523691,29.841557,53.482243)" />
    <path
       style="opacity:1;fill:url(#radialGradient1689);fill-opacity:1;fill-rule:nonzero;stroke:none;stroke-width:0.264583;stroke-miterlimit:4;stroke-dasharray:none;stroke-opacity:1;paint-order:stroke fill markers;filter:url(#filter1624)"
       id="path1687"
       sodipodi:type="arc"
       sodipodi:cx="58.39732"
       sodipodi:cy="45.735115"
       sodipodi:rx="20.788689"
       sodipodi:ry="20.788689"
       sodipodi:start="0"
       sodipodi:end="6.2569705"
       sodipodi:open="true"
       sodipodi:arc-type="arc"
       d="M 79.186008,45.735115 A 20.788689,20.788689 0 0 1 58.533562,66.523357 20.788689,20.788689 0 0 1 37.610417,46.007593 20.788689,20.788689 0 0 1 57.988618,24.950444 20.788689,20.788689 0 0 1 79.178866,45.190206"
       transform="matrix(0.20335095,0,0,0.20335095,48.412049,47.396146)" />
    <path
       style="opacity:1;fill:url(#radialGradient1693);fill-opacity:1;fill-rule:nonzero;stroke:none;stroke-width:0.264583;stroke-miterlimit:4;stroke-dasharray:none;stroke-opacity:1;paint-order:stroke fill markers;filter:url(#filter1624)"
       id="path1691"
       sodipodi:type="arc"
       sodipodi:cx="58.39732"
       sodipodi:cy="45.735115"
       sodipodi:rx="20.788689"
       sodipodi:ry="20.788689"
       sodipodi:start="0"
       sodipodi:end="6.2569705"
       sodipodi:open="true"
       sodipodi:arc-type="arc"
       d="M 79.186008,45.735115 A 20.788689,20.788689 0 0 1 58.533562,66.523357 20.788689,20.788689 0 0 1 37.610417,46.007593 20.788689,20.788689 0 0 1 57.988618,24.950444 20.788689,20.788689 0 0 1 79.178866,45.190206"
       transform="matrix(0.78551756,0,0,0.78551756,44.936656,76.61667)" />
    <path
       style="opacity:1;fill:url(#radialGradient1697);fill-opacity:1;fill-rule:nonzero;stroke:none;stroke-width:0.264583;stroke-miterlimit:4;stroke-dasharray:none;stroke-opacity:1;paint-order:stroke fill markers;filter:url(#filter1624)"
       id="path1695"
       sodipodi:type="arc"
       sodipodi:cx="58.39732"
       sodipodi:cy="45.735115"
       sodipodi:rx="20.788689"
       sodipodi:ry="20.788689"
       sodipodi:start="0"
       sodipodi:end="6.2569705"
       sodipodi:open="true"
       sodipodi:arc-type="arc"
       d="M 79.186008,45.735115 A 20.788689,20.788689 0 0 1 58.533562,66.523357 20.788689,20.788689 0 0 1 37.610417,46.007593 20.788689,20.788689 0 0 1 57.988618,24.950444 20.788689,20.788689 0 0 1 79.178866,45.190206"
       transform="matrix(0.52288601,0,0,0.52288601,81.818278,54.42131)" />
    <path
       style="opacity:1;fill:url(#radialGradient1701);fill-opacity:1;fill-rule:nonzero;stroke:none;stroke-width:0.264583;stroke-miterlimit:4;stroke-dasharray:none;stroke-opacity:1;paint-order:stroke fill markers;filter:url(#filter1624)"
       id="path1699"
       sodipodi:type="arc"
       sodipodi:cx="58.39732"
       sodipodi:cy="45.735115"
       sodipodi:rx="20.788689"
       sodipodi:ry="20.788689"
       sodipodi:start="0"
       sodipodi:end="6.2569705"
       sodipodi:open="true"
       sodipodi:arc-type="arc"
       d="M 79.186008,45.735115 A 20.788689,20.788689 0 0 1 58.533562,66.523357 20.788689,20.788689 0 0 1 37.610417,46.007593 20.788689,20.788689 0 0 1 57.988618,24.950444 20.788689,20.788689 0 0 1 79.178866,45.190206"
       transform="matrix(0.88619299,0,0,0.88619299,71.846914,52.640989)" />
    <path
       style="opacity:1;fill:url(#radialGradient1705);fill-opacity:1;fill-rule:nonzero;stroke:none;stroke-width:0.264583;stroke-miterlimit:4;stroke-dasharray:none;stroke-opacity:1;paint-order:stroke fill markers;filter:url(#filter1624)"
       id="path1703"
       sodipodi:type="arc"
       sodipodi:cx="58.39732"
       sodipodi:cy="45.735115"
       sodipodi:rx="20.788689"
       sodipodi:ry="20.788689"
       sodipodi:start="0"
       sodipodi:end="6.2569705"
       sodipodi:open="true"
       sodipodi:arc-type="arc"
       d="M 79.186008,45.735115 A 20.788689,20.788689 0 0 1 58.533562,66.523357 20.788689,20.788689 0 0 1 37.610417,46.007593 20.788689,20.788689 0 0 1 57.988618,24.950444 20.788689,20.788689 0 0 1 79.178866,45.190206"
       transform="matrix(0.39157023,0,0,0.39157023,134.08796,52.489552)" />
    <path
       style="opacity:1;fill:url(#radialGradient1709);fill-opacity:1;fill-rule:nonzero;stroke:none;stroke-width:0.264583;stroke-miterlimit:4;stroke-dasharray:none;stroke-opacity:1;paint-order:stroke fill markers;filter:url(#filter1624)"
       id="path1707"
       sodipodi:type="arc"
       sodipodi:cx="58.39732"
       sodipodi:cy="45.735115"
       sodipodi:rx="20.788689"
       sodipodi:ry="20.788689"
       sodipodi:start="0"
       sodipodi:end="6.2569705"
       sodipodi:open="true"
       sodipodi:arc-type="arc"
       d="M 79.186008,45.735115 A 20.788689,20.788689 0 0 1 58.533562,66.523357 20.788689,20.788689 0 0 1 37.610417,46.007593 20.788689,20.788689 0 0 1 57.988618,24.950444 20.788689,20.788689 0 0 1 79.178866,45.190206"
       transform="matrix(0.32591234,0,0,0.32591234,102.8649,51.618167)" />
    <path
       style="opacity:1;fill:url(#radialGradient1713);fill-opacity:1;fill-rule:nonzero;stroke:none;stroke-width:0.264583;stroke-miterlimit:4;stroke-dasharray:none;stroke-opacity:1;paint-order:stroke fill markers;filter:url(#filter1624)"
       id="path1711"
       sodipodi:type="arc"
       sodipodi:cx="58.39732"
       sodipodi:cy="45.735115"
       sodipodi:rx="20.788689"
       sodipodi:ry="20.788689"
       sodipodi:start="0"
       sodipodi:end="6.2569705"
       sodipodi:open="true"
       sodipodi:arc-type="arc"
       d="M 79.186008,45.735115 A 20.788689,20.788689 0 0 1 58.533562,66.523357 20.788689,20.788689 0 0 1 37.610417,46.007593 20.788689,20.788689 0 0 1 57.988618,24.950444 20.788689,20.788689 0 0 1 79.178866,45.190206"
       transform="matrix(0.28214042,0,0,0.28214042,79.907679,35.666213)" />
    <path
       style="opacity:1;fill:url(#radialGradient1717);fill-opacity:1;fill-rule:nonzero;stroke:none;stroke-width:0.264583;stroke-miterlimit:4;stroke-dasharray:none;stroke-opacity:1;paint-order:stroke fill markers;filter:url(#filter1624)"
       id="path1715"
       sodipodi:type="arc"
       sodipodi:cx="58.39732"
       sodipodi:cy="45.735115"
       sodipodi:rx="20.788689"
       sodipodi:ry="20.788689"
       sodipodi:start="0"
       sodipodi:end="6.2569705"
       sodipodi:open="true"
       sodipodi:arc-type="arc"
       d="M 79.186008,45.735115 A 20.788689,20.788689 0 0 1 58.533562,66.523357 20.788689,20.788689 0 0 1 37.610417,46.007593 20.788689,20.788689 0 0 1 57.988618,24.950444 20.788689,20.788689 0 0 1 79.178866,45.190206"
       transform="matrix(0.79427195,0,0,0.79427195,93.184345,77.917182)"
       inkscape:export-filename="C:\Users\Matt\Documents\portfolio\img\path1715.png"
       inkscape:export-xdpi="190.96201"
       inkscape:export-ydpi="190.96201" />
    <path
       style="opacity:1;fill:url(#radialGradient1721);fill-opacity:1;fill-rule:nonzero;stroke:none;stroke-width:0.194075;stroke-miterlimit:4;stroke-dasharray:none;stroke-opacity:1;paint-order:stroke fill markers;filter:url(#filter1636)"
       id="path1719"
       sodipodi:type="arc"
       sodipodi:cx="1.4174047"
       sodipodi:cy="49.042389"
       sodipodi:rx="15.248798"
       sodipodi:ry="15.248798"
       sodipodi:start="0"
       sodipodi:end="6.2569705"
       sodipodi:open="true"
       sodipodi:arc-type="arc"
       d="M 16.666203,49.042389 A 15.248798,15.248798 0 0 1 1.51734,64.29086 15.248798,15.248798 0 0 1 -13.830084,49.242255 15.248798,15.248798 0 0 1 1.1176157,33.796538 15.248798,15.248798 0 0 1 16.660964,48.64269"
       transform="matrix(0.66437037,0,0,0.66437037,-0.37472351,20.712311)" />
  </g>
</svg>
